<svg width="143" height="71" viewBox="0 0 143 71" fill="none" xmlns="http://www.w3.org/2000/svg">
<path d="M45.9068 54.1C36.2068 50.55 45.5068 20.8 45.3068 19.05C45.0568 16.65 41.5068 15.8 40.7568 16.85C39.2568 18.9 36.4068 27.75 34.9068 37.15C32.7568 36.1 29.3568 35.4 26.6068 35.3C27.4568 31.85 28.3068 28.65 29.2068 26.2L29.3568 26.35C29.3568 26.35 29.4568 25.8 29.7068 25.05C30.5568 23.15 31.4568 21.85 32.5068 21.4C32.8568 21.4 33.1568 21.35 33.4068 21.25C33.4568 21.25 33.5068 21.2 33.5068 21.2C36.2568 20 36.8568 14.3 32.5068 14.3C30.3068 14.3 28.7068 15.4 27.6068 16.75C22.6068 16 17.0068 13.05 11.6568 14.95C3.65684 17.8 0.106836 31.7 11.6068 31.7C19.5568 30.7 15.8068 29.9 15.1068 29.05C13.5568 27.15 13.8068 20.9 20.5068 20.9C22.4068 20.9 24.0068 21.1 25.4068 21.3C25.3068 21.6 25.2568 21.85 25.2568 21.95C20.5568 30.05 19.5568 50.1 11.9068 53C8.00684 54.45 6.50684 49.35 6.15684 50.5C4.25684 57.2 8.05684 62.65 13.4568 62.65C19.5068 62.65 22.6068 51.75 25.1568 41.2C27.9568 41.8 31.5568 42.8 34.1068 44.3C33.4568 54.25 35.1068 63 42.4068 63C47.8568 63 50.1568 57.9 50.1568 54.45C50.1568 53.2 48.6068 55.1 45.9068 54.1ZM66.7131 32.6C64.5631 33.25 61.0131 33.7 57.6131 32.3C57.2131 31.7 56.7131 31.2 56.1631 30.75C55.4131 29.35 53.8131 27.3 51.2131 29.05C46.7631 29.3 43.0631 33.85 42.8631 39.55C42.6131 45.55 46.2631 50.6 51.0131 50.75C55.7131 50.95 59.7631 46.25 60.0131 40.25C60.0131 39.75 60.0131 39.3 59.9631 38.8C61.9131 39 63.8631 38.8 65.3131 37.95C65.9631 37.6 68.1131 32.2 66.7131 32.6ZM56.3631 38.6C56.2631 41.8 54.2131 44.3 51.8131 44.2C49.4131 44.1 47.6131 41.45 47.7131 38.25C47.8131 35.85 49.0131 33.8 50.6131 33.05C51.1631 34.4 52.2131 35.65 52.9631 36.3C53.7631 36.95 54.9631 37.6 56.3631 38.05C56.3631 38.25 56.3631 38.4 56.3631 38.6Z" fill="black"/>
<path d="M123.951 39.3C123.951 39.3 123.501 36.9 123.201 35.35C121.601 36.9 119.801 38.35 118.301 39.5C118.001 37.65 117.351 36.05 116.551 35.25C115.701 34.4 113.801 31.35 113.801 31.35C113.801 31.35 116.901 24 113.801 24C111.451 24 107.901 26.35 108.551 29.95C107.101 32.25 104.851 35.8 103.401 37.75C103.101 38.2 104.651 41.75 105.351 41.05C105.401 41.05 105.401 41.05 105.401 41.05C104.701 43.05 105.701 49.15 111.501 49.15C113.051 49.15 114.301 48.8 115.301 48.2C120.301 46.7 123.951 39.3 123.951 39.3ZM106.351 40.65C106.251 40.55 106.151 40.45 106.051 40.45C108.351 38.2 109.751 35.75 110.601 33.85C114.251 38.95 110.251 44.5 106.351 40.65ZM113.951 25.35L112.851 29.5C111.801 26.95 113.951 25.35 113.951 25.35ZM137.943 28C137.843 26.1 133.543 24.8 133.643 26.75C133.793 28.45 133.893 30.65 133.943 33.05C132.343 36.95 129.593 41.25 127.593 40.15C124.943 38.65 127.143 33.9 127.143 31.3C127.143 27.35 121.843 27.45 121.843 29.15C121.843 34.95 117.643 48.5 124.743 48.5C128.843 48.5 131.543 45.85 133.343 42.55C132.543 47.65 130.843 52.2 127.343 54.05C122.743 56.45 119.793 54.3 119.793 52.6C119.743 52.05 119.693 51 118.793 51.8C115.843 54.5 116.643 63.9 125.993 63.25C142.143 62.1 138.093 29.9 137.943 28Z" fill="black"/>
<g clip-path="url(#clip0_54_898)">
<path d="M106.25 42.5001C106.123 42.4997 106.002 42.4458 105.917 42.3518C105.843 42.2736 105.806 42.1673 105.816 42.0601C105.874 41.4555 105.797 40.8455 105.591 40.2743C105.312 39.5092 104.817 38.8414 104.167 38.3518V25.4001L104.96 26.1026C105.653 26.7155 106.711 26.6537 107.327 25.9643L109.577 23.4451C109.874 23.113 110.026 22.6766 109.999 22.2323C109.973 21.788 109.771 21.3725 109.437 21.0776L102.5 14.9351V4.76845C103.014 4.4731 103.332 3.92622 103.333 3.33344V1.66678C103.333 0.746301 102.587 0.000108754 101.667 0.000108754H95C94.0795 0.000108754 93.3333 0.746301 93.3333 1.66678V3.33344C93.3351 3.92622 93.6527 4.4731 94.1666 4.76845V7.55511L86.1142 0.422609C85.4782 -0.14087 84.5217 -0.14087 83.8858 0.422609L80.5733 3.35678C78.2421 3.02357 75.8777 3.67978 74.0517 5.16678L73.9142 5.28178C73.7535 5.43379 73.5739 5.56458 73.38 5.67095C73.1264 5.73657 72.8633 5.75771 72.6025 5.73345C72.3451 5.72439 72.0873 5.73163 71.8308 5.75511C70.6111 5.94251 69.5462 6.68241 68.945 7.76011C68.5468 8.45243 68.27 9.20777 68.1267 9.99345C67.1348 10.0219 66.208 10.4939 65.6017 11.2793C64.9058 12.2355 64.5966 13.4191 64.7358 14.5935C64.82 15.3839 65.0005 16.161 65.2733 16.9076L60.5658 21.0743C60.2315 21.3694 60.0286 21.7857 60.0022 22.2308C59.9757 22.676 60.1279 23.1134 60.425 23.446L62.675 25.9643C63.2915 26.654 64.3494 26.7162 65.0425 26.1035L65.8333 25.401V38.3518C65.1834 38.8418 64.6893 39.5095 64.4108 40.2743C64.2044 40.845 64.1276 41.4544 64.1858 42.0585C64.196 42.1662 64.1593 42.2731 64.085 42.3518C63.9992 42.4463 63.8776 42.5001 63.75 42.5001C61.6799 42.5024 60.0023 44.18 60 46.2501V46.6668C60 48.5078 61.4924 50.0001 63.3333 50.0001H106.667C108.508 50.0001 110 48.5078 110 46.6668V46.2501C109.998 44.18 108.32 42.5024 106.25 42.5001ZM95 1.66678H101.667V3.33344H95V1.66678ZM95.8333 5.00011H100.833V13.4593L95.8333 9.03095V5.00011ZM66.3967 14.4535C66.2951 13.6959 66.4806 12.9278 66.9167 12.3001C67.2834 11.7966 67.9189 11.5658 68.5233 11.7168C68.7584 11.802 69.0194 11.7772 69.2342 11.6491C69.4489 11.5211 69.5949 11.3033 69.6317 11.056C69.7186 10.2029 69.9702 9.37484 70.3725 8.61761C70.7066 7.98429 71.3131 7.53945 72.0175 7.41095C72.2012 7.39453 72.3858 7.39063 72.57 7.39928C73.0517 7.43509 73.5357 7.37388 73.9933 7.21928C74.3578 7.05084 74.6933 6.82584 74.9875 6.55261L75.1142 6.44678C76.1526 5.6092 77.415 5.09642 78.7433 4.97261L66.64 15.6968C66.5186 15.2913 66.4371 14.8748 66.3967 14.4535ZM63.9167 24.8543L61.6667 22.3251L85.0091 1.66678L108.333 22.3335L106.083 24.8518C106.078 24.8564 106.07 24.8564 106.064 24.8518L86.1142 7.18511C85.4785 6.62002 84.5206 6.62002 83.885 7.18511L63.9167 24.8543ZM67.5 23.926L85.0091 8.43345L102.5 23.9243V37.591C102.46 37.5826 102.422 37.5693 102.382 37.5626C100.482 37.2351 98.6042 38.2511 97.8391 40.021C96.2021 39.8566 94.6889 40.9084 94.2725 42.5001H93.3333C93.0534 42.4999 92.7743 42.5278 92.5 42.5835V35.0001C92.5 30.858 89.1421 27.5001 85 27.5001C80.8578 27.5001 77.5 30.858 77.5 35.0001V42.5835C77.2257 42.5278 76.9465 42.4999 76.6667 42.5001H75.7275C75.3136 40.9063 73.7991 39.8525 72.1608 40.0185C71.3984 38.2462 69.519 37.2291 67.6183 37.5601C67.5783 37.5668 67.54 37.5801 67.5 37.5885V23.926ZM89.1667 46.6668V48.3335H85.8333V36.6668C85.8333 36.2066 85.4602 35.8335 85 35.8335C84.5397 35.8335 84.1667 36.2066 84.1667 36.6668V48.3335H80.8333V46.6668C80.8295 45.3622 80.2121 44.1355 79.1667 43.3551V35.0001C79.1722 32.1038 81.3003 29.6493 84.1667 29.2335V32.5001C84.1667 32.9604 84.5397 33.3335 85 33.3335C85.4602 33.3335 85.8333 32.9604 85.8333 32.5001V29.2335C88.6997 29.6493 90.8278 32.1038 90.8333 35.0001V43.3551C89.7878 44.1355 89.1705 45.3622 89.1667 46.6668ZM78.3333 48.3335H63.3333C62.4129 48.3335 61.6667 47.5873 61.6667 46.6668V46.2501C61.6667 45.0995 62.5994 44.1668 63.75 44.1668C64.3478 44.1662 64.9177 43.9139 65.32 43.4718C65.7093 43.0437 65.8999 42.4712 65.845 41.8951C65.8109 41.5355 65.8576 41.1728 65.9817 40.8335C66.282 39.9877 67.0107 39.3664 67.8933 39.2035C68.0351 39.1794 68.1787 39.1671 68.3225 39.1668C69.5162 39.1623 70.5465 40.0025 70.7825 41.1726C70.831 41.413 70.9829 41.6198 71.1977 41.7379C71.4125 41.8561 71.6685 41.8737 71.8975 41.786C72.409 41.5724 72.9938 41.632 73.4518 41.9443C73.9097 42.2566 74.1787 42.7793 74.1667 43.3335C74.1667 43.7937 74.5398 44.1668 75 44.1668H76.6667C78.0474 44.1668 79.1667 45.2861 79.1667 46.6668V48.3335H78.3333ZM108.333 46.6668C108.333 47.5873 107.587 48.3335 106.667 48.3335H90.8333V46.6668C90.8333 45.2861 91.9526 44.1668 93.3333 44.1668H95C95.4602 44.1668 95.8333 43.7937 95.8333 43.3335C95.8211 42.7793 96.0901 42.2565 96.5482 41.9443C97.0062 41.6321 97.5911 41.5728 98.1025 41.7868C98.3314 41.8745 98.5874 41.857 98.8023 41.7388C99.0171 41.6206 99.169 41.4138 99.2175 41.1735C99.4358 40.0699 100.366 39.2491 101.488 39.1696C102.61 39.0901 103.647 39.7717 104.018 40.8335C104.142 41.1736 104.189 41.5372 104.155 41.8976C104.1 42.4731 104.291 43.0449 104.68 43.4726C105.082 43.9144 105.652 44.1664 106.25 44.1668C107.401 44.1668 108.333 45.0995 108.333 46.2501V46.6668Z" fill="black"/>
<path d="M85 24.1667C87.7614 24.1667 90 21.9282 90 19.1667C90 16.4053 87.7614 14.1667 85 14.1667C82.2386 14.1667 80 16.4053 80 19.1667C80.0028 21.927 82.2397 24.164 85 24.1667ZM88.3333 19.1667C88.3276 20.6821 87.3006 22.0029 85.8333 22.3817V15.9517C87.3006 16.3306 88.3276 17.6514 88.3333 19.1667ZM84.1667 15.9517V22.3817C82.6965 22.0076 81.6674 20.6838 81.6674 19.1667C81.6674 17.6497 82.6965 16.3259 84.1667 15.9517Z" fill="black"/>
<path d="M70 29.1667C69.5398 29.1667 69.1667 29.5398 69.1667 30C69.1667 30.4602 69.5398 30.8333 70 30.8333H70.8334V33.3333C70.8334 33.7936 71.2064 34.1667 71.6667 34.1667C72.1269 34.1667 72.5 33.7936 72.5 33.3333V30.8333H76.6667C77.1269 30.8333 77.5 30.4602 77.5 30C77.5 29.5398 77.1269 29.1667 76.6667 29.1667H75V26.6667H77.5C77.9603 26.6667 78.3334 26.2936 78.3334 25.8333C78.3334 25.3731 77.9603 25 77.5 25H70C69.5398 25 69.1667 25.3731 69.1667 25.8333C69.1667 26.2936 69.5398 26.6667 70 26.6667H73.3334V29.1667H70Z" fill="black"/>
<path d="M92.5 26.6667H95V29.1667H93.3334C92.8731 29.1667 92.5 29.5398 92.5 30C92.5 30.4602 92.8731 30.8333 93.3334 30.8333H97.5V33.3333C97.5 33.7936 97.8731 34.1667 98.3334 34.1667C98.7936 34.1667 99.1667 33.7936 99.1667 33.3333V30.8333H100C100.46 30.8333 100.833 30.4602 100.833 30C100.833 29.5398 100.46 29.1667 100 29.1667H96.6667V26.6667H100C100.46 26.6667 100.833 26.2936 100.833 25.8333C100.833 25.3731 100.46 25 100 25H92.5C92.0398 25 91.6667 25.3731 91.6667 25.8333C91.6667 26.2936 92.0398 26.6667 92.5 26.6667Z" fill="black"/>
</g>
<defs>
<clipPath id="clip0_54_898">
<rect width="50" height="50" fill="white" transform="translate(60)"/>
</clipPath>
</defs>
</svg>
